<svg id="レイヤー_1" data-name="レイヤー 1" xmlns="http://www.w3.org/2000/svg" viewBox="0 0 18 14.63"><defs><style>.cls-1{fill:#231815}</style></defs><title>icon-twitter</title><path class="cls-1" d="M18 1.73a7.16 7.16 0 0 1-2.12.58 3.66 3.66 0 0 0 1.62-2 7.53 7.53 0 0 1-2.34.9 3.7 3.7 0 0 0-6.3 3.36A10.49 10.49 0 0 1 1.25.68 3.7 3.7 0 0 0 2.4 5.61a3.67 3.67 0 0 1-1.68-.47 3.7 3.7 0 0 0 3 3.67A3.6 3.6 0 0 1 2 8.87a3.69 3.69 0 0 0 3.45 2.57A7.43 7.43 0 0 1 0 13a10.43 10.43 0 0 0 5.66 1.66 10.45 10.45 0 0 0 10.5-11A7.6 7.6 0 0 0 18 1.73z"/></svg>