<svg data-name="レイヤー 1" xmlns="http://www.w3.org/2000/svg" viewBox="0 0 551.09 415.15"><title>logo-b</title><path d="M47.44 72.78l-17.77-3.1C11.12 66.44 0 55.78 0 38.78c0-23 15.91-34.14 41.56-34.14s41.57 11.12 41.57 32.91v2.62H59.18v-2.62c0-8-6.49-12.06-17.62-12.06s-16.84 3.25-16.84 11.59c0 5.72 4.48 9.58 11 10.66l17.77 3.09c19.47 3.4 29.67 13.91 29.67 30.75 0 23.18-15.92 34.3-41.57 34.3S0 104.76 0 83v-2.65h24V83c0 8 6.49 12 17.61 12s16.85-3.09 16.85-11.74c-.05-5.85-4.54-9.4-11.02-10.48zm99.05 41.56V62.89c0-7.57-4.94-11.13-12.67-11.13S121 55.32 121 62.89v51.45H98.59V0H121v39.56c4.79-4.79 11.59-7.11 19.62-7.11 17 0 28.28 10.81 28.28 32v49.91zM186.54 0h22.4v22.4h-22.4zm0 34h22.4v80.35h-22.4zm110.64 49.9c0 21.17-11.12 32-28.43 32-9.27 0-16.68-3.09-21.63-9.27l-3.24 7.73h-17V0h22.41v39.4c4.79-4.63 11.58-6.95 19.62-6.95 17.15 0 28.27 10.81 28.27 32zm-22.4-21c0-7.57-4.94-11.13-12.67-11.13s-12.82 3.56-12.82 11.13v22.55c0 7.57 5.09 11.12 12.67 11.12 7.88 0 12.82-3.55 12.82-11.12zM383 114.34h-17l-3.4-7.73c-4.95 6.18-12.52 9.27-21.63 9.27-17 0-28.28-10.81-28.28-32V34h22.4v51.45c0 7.57 4.95 11.12 12.67 11.12s12.82-3.57 12.82-11.12V34H383zm31.47 30.9l10.53-30.9h-2.8L395 34h24l17.46 55.32L453.72 34h22.4l-37.7 111.25zm93.82-79.73c8.5 0 15.6 2.32 20.39 6.8V61.19c0-6.49-4.17-10.36-10.81-10.36-8 0-10.82 2.63-10.82 8.66h-22.4c0-17.46 11.59-27 33.22-27 20.08 0 33.22 10.2 33.22 30.13v51.76h-17l-3.24-7.57c-4.79 6-12.67 9.11-22.72 9.11-16.53 0-27.35-8.49-27.35-25.18s10.82-25.23 27.51-25.23zm7.57 31.06c7.72 0 12.82-2 12.82-6.64s-5.1-6.65-12.82-6.65-12.67 2-12.67 6.65 4.94 6.64 12.67 6.64zM74.63 202.94l-25.34 48.2L24 202.94v61H0V155.81h23.18l26.11 49.75 26.11-49.75h23.18V264h-24zm110.72 34.76c-2 18.7-15 27.81-35.07 27.81-20.86 0-35.08-10.66-35.08-32v-19.45c0-21.17 13.91-32 35.23-32 21.17 0 35.08 10.81 35.08 32v16.69h-47.9v4.33c0 6.79 4.32 11.12 12.67 11.12s11.43-3.71 12.67-8.5zm-47.74-23.17h25.49v-2c0-7.57-4.94-11.13-12.67-11.13s-12.82 3.56-12.82 11.13zm62-.47c0-21.17 11.13-32 28.28-32 8 0 14.67 2.32 19.62 6.95v-39.4h22.4V264h-17l-3.25-7.73c-4.94 6.18-12.51 9.27-21.63 9.27-17.3 0-28.43-10.81-28.43-32zm22.4 21c0 7.57 5 11.12 12.83 11.12 7.57 0 12.67-3.55 12.67-11.12v-22.54c0-7.57-5.1-11.13-12.82-11.13S222 205 222 212.52zM288 149.63h22.41V172H288zm0 34h22.41V264H288zm63.86 31.51c8.5 0 15.61 2.32 20.4 6.8v-11.12c0-6.49-4.17-10.35-10.82-10.35-8 0-10.81 2.62-10.81 8.65h-22.41c0-17.46 11.59-27 33.22-27 20.09 0 33.22 10.2 33.22 30.13V264h-17l-3.25-7.57c-4.79 6-12.67 9.11-22.71 9.11-16.53 0-27.35-8.49-27.35-25.18s10.83-25.22 27.51-25.22zm7.58 31.06c7.72 0 12.82-2 12.82-6.64s-5.1-6.65-12.82-6.65-12.67 2-12.67 6.65 4.94 6.64 12.67 6.64zm-181.15 59.24h44.5c22.4 0 37.08 10.51 37.08 36s-14.52 36.16-37.08 36.16h-20.55v36h-24zm24 51.3H222c8 0 13.14-3.71 13.14-15.3S229.89 326.3 222 326.3h-19.76zm139.48 30.59c-2 18.7-15 27.82-35.07 27.82-20.86 0-35.08-10.67-35.08-32v-19.46c0-21.17 13.91-32 35.23-32 21.17 0 35.08 10.81 35.08 32v16.69H294v4.33c0 6.8 4.33 11.12 12.67 11.12 8.5 0 11.43-3.71 12.67-8.5zM294 364.16h25.49v-2c0-7.57-4.94-11.13-12.67-11.13S294 354.58 294 362.15zm62-.47c0-21.17 11.13-32 28.28-32 8 0 14.68 2.32 19.62 7v-39.4h22.41V413.6h-17l-3.24-7.73c-5 6.19-12.52 9.28-21.64 9.28-17.3 0-28.43-10.82-28.43-32zm22.41 21c0 7.57 4.94 11.12 12.82 11.12 7.57 0 12.67-3.55 12.67-11.12v-22.54c0-7.57-5.1-11.13-12.82-11.13s-12.67 3.56-12.67 11.13zm66.03-85.43h22.41v22.41h-22.41zm0 34h22.41v80.34h-22.41zm63.85 31.51c8.5 0 15.6 2.32 20.39 6.8v-11.12c0-6.49-4.17-10.35-10.81-10.35-8 0-10.82 2.62-10.82 8.65h-22.4c0-17.46 11.59-27 33.22-27 20.08 0 33.22 10.2 33.22 30.13v51.72h-17l-3.24-7.6c-4.79 6-12.67 9.12-22.72 9.12-16.53 0-27.35-8.5-27.35-25.19s10.82-25.16 27.51-25.16zm7.57 31.06c7.72 0 12.82-2 12.82-6.64s-5.1-6.65-12.82-6.65-12.67 2-12.67 6.65 4.94 6.64 12.67 6.64zm-33.58-166.45h28.44v7H500.5v29.16h-8v-29.19h-10.22zm60.81 15.74l-8.47 16.11-8.46-16.11v20.39h-8v-36.13h7.75l8.71 16.62 8.72-16.62h7.75v36.13h-8zM0 345.23h98.58v23.95H0z"/></svg>