<svg id="レイヤー_1" data-name="レイヤー 1" xmlns="http://www.w3.org/2000/svg" viewBox="0 0 36 38"><defs><style>.cls-1{fill:#fff}</style></defs><title>people</title><path class="cls-1" d="M27.49 8.91a4.52 4.52 0 0 0 4.58-4.46 4.58 4.58 0 0 0-9.16 0 4.52 4.52 0 0 0 4.58 4.46zm0-5.94A1.51 1.51 0 0 1 29 4.45a1.53 1.53 0 0 1-3.06 0A1.51 1.51 0 0 1 27.49 3zm-16.8 7.35H4.58A4.52 4.52 0 0 0 0 14.77v8.09a4.48 4.48 0 0 0 3.05 4.2v9.46A1.51 1.51 0 0 0 4.58 38a1.5 1.5 0 0 0 1.53-1.48V25.83a1.51 1.51 0 0 0-1.53-1.49 1.51 1.51 0 0 1-1.53-1.48v-8.09a1.51 1.51 0 0 1 1.53-1.48h6.11a1.51 1.51 0 0 1 1.53 1.48v8.09a1.51 1.51 0 0 1-1.53 1.48 1.52 1.52 0 0 0-1.53 1.49v10.69a1.53 1.53 0 0 0 3.06 0v-9.46a4.47 4.47 0 0 0 3-4.2v-8.09a4.51 4.51 0 0 0-4.53-4.45zm24.4 13.08a13.57 13.57 0 0 0-2.35-4.6l.93-3a4.2 4.2 0 0 0-.67-3.7 4.3 4.3 0 0 0-3.35-1.78H25.4a4.31 4.31 0 0 0-3.35 1.78 4.2 4.2 0 0 0-.63 3.75l.93 3C19 23 19.08 29.36 19.09 29.65a1.51 1.51 0 0 0 1.53 1.45h2.29v5.42a1.53 1.53 0 0 0 3.05 0v-6.91a1.5 1.5 0 0 0-1.52-1.48H22.2c.19-2.26.91-5.85 3-8a1.44 1.44 0 0 0 .35-1.45L24.34 15a1.33 1.33 0 0 1 .2-1.17 1.29 1.29 0 0 1 1-.52h4.09a1.29 1.29 0 0 1 1 .52 1.33 1.33 0 0 1 .2 1.17l-1.17 3.74a1.44 1.44 0 0 0 .35 1.45 10 10 0 0 1 2.23 4.08 18.85 18.85 0 0 1 .72 3.88h-2.3a1.5 1.5 0 0 0-1.53 1.48v6.91a1.53 1.53 0 0 0 3.05 0V31.1h2.29A1.51 1.51 0 0 0 36 29.65a22 22 0 0 0-.91-6.25zM7.64 8.91a4.53 4.53 0 0 0 4.58-4.46A4.53 4.53 0 0 0 7.64 0a4.53 4.53 0 0 0-4.59 4.45 4.53 4.53 0 0 0 4.59 4.46zm0-5.91a1.49 1.49 0 1 1-1.53 1.45A1.5 1.5 0 0 1 7.64 3z"/></svg>